<svg width="195" height="195" viewBox="0 0 195 195" fill="none" xmlns="http://www.w3.org/2000/svg">
<path d="M149.896 116.172L154.81 114.963L151.331 111.287L152.002 109.003L156.679 114.155L163.536 112.297L162.858 114.605L157.845 115.854L161.385 119.616L160.705 121.932L155.945 116.653L149.222 118.464L149.896 116.172Z" fill="#976464"/>
<path d="M161.737 105.641L156.066 101.608L156.247 99.6307L165.124 100.441L164.943 102.418L158.946 101.871L164.625 105.905L164.444 107.882L155.567 107.072L155.748 105.095L161.737 105.641Z" fill="#976464"/>
<path d="M156.023 91.9491L164.915 91.3257L165.054 93.3144L156.163 93.9378L156.023 91.9491ZM155.819 89.0317L157.38 88.9222L157.925 96.6964L156.364 96.8059L155.819 89.0317Z" fill="#976464"/>
<path d="M153.238 78.4011L154.753 77.9483L156.013 82.1634L154.497 82.6162L153.238 78.4011ZM154.363 82.1663L162.903 79.6146L163.472 81.5169L154.931 84.0686L154.363 82.1663ZM152.792 76.9093L161.333 74.3576L161.903 76.2678L153.363 78.8195L152.792 76.9093Z" fill="#976464"/>
<path d="M152.601 71.9715L162.083 67.1731L162.979 68.9446L151.968 74.5167L151.142 72.8849L152.601 71.9715ZM152.352 65.5879L152.507 65.5098C153.085 65.2171 153.656 65.0142 154.221 64.901C154.778 64.7853 155.307 64.7668 155.808 64.8454C156.302 64.9216 156.747 65.1 157.141 65.3806C157.535 65.6611 157.859 66.0513 158.112 66.5512C158.362 67.0461 158.491 67.5257 158.498 67.9898C158.498 68.4516 158.393 68.8954 158.184 69.3214C157.975 69.7473 157.682 70.154 157.306 70.5414C156.922 70.9264 156.472 71.2897 155.955 71.6311L155.36 71.9324C154.744 72.1638 154.161 72.3238 153.608 72.4124C153.054 72.4962 152.54 72.4974 152.068 72.4162C151.597 72.3349 151.174 72.1577 150.802 71.8844C150.43 71.6111 150.12 71.2294 149.872 70.7394C149.619 70.2395 149.493 69.7465 149.493 69.2601C149.488 68.7763 149.597 68.3115 149.821 67.8659C150.04 67.4227 150.366 67.0085 150.799 66.6233C151.227 66.2405 151.745 65.8954 152.352 65.5879ZM153.403 67.2813L153.249 67.3594C152.881 67.5454 152.558 67.752 152.279 67.9793C151.995 68.2091 151.771 68.4583 151.605 68.7268C151.439 68.9953 151.348 69.2782 151.333 69.5755C151.31 69.8703 151.379 70.177 151.54 70.4955C151.698 70.8092 151.889 71.0514 152.111 71.2223C152.328 71.3956 152.568 71.5111 152.831 71.5688C153.094 71.6265 153.371 71.6337 153.663 71.5906C153.951 71.5499 154.247 71.4735 154.554 71.3615L155.98 70.6399C156.303 70.4026 156.576 70.1384 156.798 69.8475C157.02 69.5566 157.153 69.2367 157.198 68.8877C157.236 68.5363 157.151 68.1548 156.942 67.7431C156.781 67.4246 156.575 67.1874 156.324 67.0314C156.072 66.8754 155.791 66.7871 155.479 66.7665C155.159 66.7435 154.823 66.7783 154.47 66.8708C154.116 66.9634 153.761 67.1002 153.403 67.2813Z" fill="#976464"/>
<path d="M150.691 62.2454L150.541 62.3608C150.031 62.7522 149.501 63.0411 148.952 63.2275C148.398 63.4173 147.853 63.4966 147.317 63.4653C146.773 63.4331 146.256 63.283 145.766 63.0151C145.269 62.7461 144.823 62.3547 144.428 61.8407C144.03 61.3223 143.767 60.7904 143.639 60.2448C143.503 59.6982 143.49 59.1579 143.599 58.6239C143.704 58.0932 143.919 57.5849 144.245 57.0989C144.567 56.6163 144.983 56.1793 145.493 55.7879L145.643 55.6725C146.153 55.2811 146.682 54.9922 147.231 54.8058C147.781 54.6194 148.327 54.5423 148.872 54.5745C149.411 54.6101 149.928 54.7602 150.422 55.0248C150.912 55.2927 151.354 55.6837 151.749 56.1977C152.147 56.716 152.414 57.2485 152.55 57.7951C152.678 58.3407 152.69 58.8788 152.585 59.4095C152.475 59.9435 152.26 60.4518 151.938 60.9344C151.616 61.417 151.2 61.854 150.691 62.2454ZM149.331 60.7862L149.482 60.6708C149.8 60.4266 150.075 60.1631 150.308 59.8803C150.541 59.5976 150.711 59.3045 150.817 59.0012C150.923 58.6979 150.954 58.3906 150.909 58.0791C150.863 57.7676 150.725 57.4616 150.494 57.1611C150.27 56.8693 150.015 56.6635 149.729 56.5437C149.44 56.4196 149.135 56.3698 148.815 56.3943C148.494 56.4188 148.167 56.5071 147.834 56.6592C147.498 56.807 147.17 57.0029 146.852 57.2471L146.702 57.3625C146.388 57.6034 146.119 57.8657 145.894 58.1495C145.661 58.4323 145.491 58.7292 145.383 59.0402C145.272 59.3468 145.24 59.6559 145.285 59.9673C145.323 60.2778 145.455 60.5811 145.683 60.8773C145.91 61.1735 146.171 61.3819 146.464 61.5027C146.75 61.6225 147.055 61.6684 147.38 61.6406C147.705 61.6127 148.034 61.5227 148.367 61.3706C148.696 61.2219 149.018 61.0271 149.331 60.7862Z" fill="#976464"/>
<path d="M138.761 54.9694L137.292 53.6344L139.475 51.3776C140.109 50.7213 140.712 50.2121 141.286 49.8502C141.859 49.4884 142.405 49.2386 142.924 49.101C143.438 48.9674 143.928 48.9186 144.392 48.9547C144.852 48.987 145.286 49.077 145.694 49.2246L146.127 49.6179L145.074 50.7765L144.856 50.6003C144.511 50.6286 144.191 50.6789 143.895 50.7514C143.591 50.8243 143.292 50.934 142.995 51.0804C142.695 51.2309 142.381 51.4384 142.051 51.7031C141.718 51.964 141.349 52.3005 140.945 52.7126L138.761 54.9694ZM138.371 54.6149L134.188 50.8149L140.181 44.2171L141.645 45.5465L136.781 50.9004L139.501 53.3709L138.371 54.6149ZM145.399 51.0933L138.215 44.5681L141.063 41.4338L142.532 42.7688L140.749 44.7322L144.974 48.571L146.758 46.6075L148.252 47.9646L145.399 51.0933Z" fill="#976464"/>
<path d="M132.017 40.6977L129.735 44.2838C129.564 44.5525 129.465 44.8152 129.439 45.0717C129.412 45.3282 129.464 45.5732 129.596 45.8065C129.723 46.0369 129.934 46.2465 130.231 46.4353C130.504 46.6092 130.77 46.7133 131.028 46.7474C131.286 46.7816 131.521 46.7553 131.733 46.6685C131.944 46.5818 132.113 46.4388 132.24 46.2395L133.908 47.3012C133.719 47.5977 133.465 47.8392 133.144 48.0258C132.824 48.2124 132.457 48.3276 132.045 48.3713C131.633 48.4151 131.198 48.3787 130.738 48.2619C130.278 48.1452 129.812 47.9365 129.34 47.6357C128.775 47.2759 128.335 46.8624 128.02 46.3953C127.701 45.9252 127.538 45.4182 127.533 44.8744C127.52 44.3323 127.696 43.774 128.062 43.1994L130.19 39.8566C130.408 39.5137 130.581 39.1909 130.708 38.888C130.829 38.5868 130.906 38.3071 130.94 38.0489L131.011 37.9377L132.727 39.0303C132.691 39.2612 132.607 39.5303 132.477 39.8378C132.339 40.147 132.186 40.4336 132.017 40.6977ZM129.823 43.6078L130.469 42.5634L131.671 43.3286C131.981 43.5262 132.274 43.6701 132.549 43.7602C132.82 43.855 133.07 43.897 133.299 43.886C133.527 43.8751 133.731 43.8159 133.91 43.7085C134.089 43.6011 134.242 43.4478 134.368 43.2486C134.495 43.0494 134.565 42.8369 134.579 42.6111C134.589 42.3899 134.536 42.177 134.419 41.9723C134.297 41.7646 134.109 41.5797 133.854 41.4175C133.511 41.1993 133.168 41.0786 132.825 41.0554C132.474 41.0339 132.16 41.0779 131.882 41.1873C131.601 41.3015 131.397 41.4483 131.269 41.6277L131.201 40.539C131.377 40.3845 131.602 40.241 131.875 40.1088C132.148 39.9766 132.456 39.8801 132.801 39.8195C133.138 39.7605 133.497 39.7644 133.878 39.831C134.254 39.8946 134.636 40.0503 135.026 40.298C135.517 40.6106 135.893 40.9865 136.153 41.4259C136.411 41.8699 136.543 42.328 136.548 42.8002C136.551 43.277 136.416 43.7285 136.145 44.1548C135.891 44.5533 135.593 44.8582 135.25 45.0696C134.9 45.2827 134.512 45.4006 134.088 45.4234C133.658 45.4431 133.197 45.3706 132.703 45.2059C132.206 45.0458 131.684 44.7918 131.137 44.4438L129.823 43.6078Z" fill="#976464"/>
<path d="M122.942 37.8946L124.383 44.1254L122.103 43.2599L121.408 39.2421L119.783 38.6252L120.662 37.0291L122.942 37.8946ZM121.9 37.8074L125.413 34.9821L127.693 35.8475L122.893 39.3918L121.9 37.8074ZM117.42 41.4822L120.584 33.1488L122.432 33.8505L119.269 42.1839L117.42 41.4822ZM112.283 39.532L117.496 35.8274L119.784 36.6958L119.39 38.4761L117.757 37.8562L114.571 40.4004L112.283 39.532ZM117.588 32.0114L118.349 36.4595L116.508 36.9679L115.285 31.1372L117.588 32.0114Z" fill="#976464"/>
<path d="M104.592 41.3317L102.368 36.7851L99.514 40.9646L97.1393 40.793L101.183 35.1301L97.9138 28.8229L100.313 28.9963L102.596 33.6299L105.522 29.3729L107.93 29.547L103.779 35.3178L106.975 41.504L104.592 41.3317Z" fill="#976464"/>
<path d="M91.7666 32.0029L89.022 38.3976L87.0513 38.6388L85.9683 29.7911L87.939 29.5499L88.6707 35.5274L91.4143 29.1245L93.3849 28.8833L94.468 37.7309L92.4973 37.9721L91.7666 32.0029Z" fill="#976464"/>
<path d="M79.576 40.495L77.0866 31.936L79.0009 31.3792L81.4903 39.9382L79.576 40.495ZM76.7678 41.3118L76.3307 39.8088L83.8139 37.6323L84.251 39.1353L76.7678 41.3118Z" fill="#976464"/>
<path d="M66.9724 46.0445L66.2124 44.6573L70.0705 42.5436L70.8305 43.9307L66.9724 46.0445ZM70.4187 44.1564L66.1357 36.3391L67.8769 35.3851L72.1599 43.2024L70.4187 44.1564ZM65.6069 46.7927L61.3239 38.9754L63.0723 38.0175L67.3553 45.8347L65.6069 46.7927Z" fill="#976464"/>
<path d="M60.8209 48.0141L54.1326 39.7555L55.6755 38.506L63.4422 48.0962L62.0209 49.2472L60.8209 48.0141ZM54.6328 49.6015L54.5239 49.467C54.1161 48.9634 53.7973 48.4477 53.5677 47.9198C53.3373 47.3997 53.2077 46.8862 53.179 46.3795C53.1494 45.8805 53.2302 45.4086 53.4214 44.9641C53.6126 44.5195 53.9259 44.1209 54.3612 43.7683C54.7923 43.4192 55.2339 43.1923 55.6862 43.0875C56.1376 42.9905 56.5936 42.9993 57.054 43.1141C57.5144 43.2288 57.9737 43.4294 58.4317 43.7157C58.8889 44.0097 59.3388 44.3733 59.7814 44.8064L60.2014 45.3249C60.5572 45.8778 60.8366 46.4148 61.0396 46.9359C61.2383 47.4605 61.3477 47.9621 61.3677 48.4406C61.3877 48.9191 61.3033 49.369 61.1146 49.7904C60.9258 50.2119 60.618 50.5954 60.1912 50.941C59.7559 51.2936 59.3005 51.521 58.8251 51.6234C58.3531 51.73 57.8757 51.7208 57.3929 51.5959C56.9136 51.4753 56.44 51.2439 55.9722 50.9019C55.5079 50.5642 55.0614 50.1307 54.6328 49.6015ZM56.0668 48.2175L56.1757 48.3519C56.4349 48.6721 56.705 48.9445 56.986 49.1692C57.2704 49.3983 57.5613 49.5655 57.8587 49.671C58.1561 49.7764 58.4518 49.8055 58.7457 49.7583C59.0388 49.7188 59.3241 49.5867 59.6015 49.362C59.8747 49.1408 60.0714 48.9038 60.1917 48.6509C60.3154 48.4023 60.3778 48.1433 60.3787 47.8739C60.3797 47.6046 60.3283 47.3317 60.2246 47.0553C60.1243 46.7831 59.9872 46.509 59.8131 46.233L58.8073 44.991C58.5072 44.7252 58.1916 44.5144 57.8604 44.3585C57.5293 44.2027 57.1884 44.1396 56.8377 44.1691C56.4863 44.2064 56.1313 44.3702 55.7728 44.6605C55.4954 44.8852 55.3069 45.1368 55.2073 45.4153C55.1078 45.6938 55.0808 45.9877 55.1264 46.2971C55.1712 46.6142 55.276 46.9356 55.4409 47.2614C55.6059 47.5873 55.8145 47.9059 56.0668 48.2175Z" fill="#976464"/>
<path d="M51.7579 51.887L51.9024 52.0096C52.3924 52.4253 52.7864 52.882 53.0844 53.3797C53.3865 53.8809 53.5789 54.397 53.6614 54.928C53.7445 55.4667 53.7067 56.0036 53.548 56.5388C53.3899 57.0817 53.1012 57.6002 52.682 58.0944C52.2592 58.5927 51.7946 58.962 51.2882 59.2023C50.7826 59.4503 50.2572 59.5771 49.7121 59.5829C49.1713 59.5922 48.629 59.4886 48.0852 59.2721C47.5456 59.0592 47.0308 58.7449 46.5408 58.3292L46.3963 58.2066C45.9063 57.7909 45.5123 57.3342 45.2144 56.8365C44.9164 56.3388 44.7258 55.8206 44.6427 55.2819C44.5637 54.7467 44.6015 54.2098 44.756 53.6711C44.9148 53.1359 45.2038 52.6213 45.623 52.1271C46.0458 51.6287 46.5101 51.2556 47.0158 51.0076C47.5221 50.7673 48.0457 50.6426 48.5866 50.6333C49.1316 50.6275 49.6739 50.7311 50.2135 50.944C50.7531 51.157 51.2679 51.4713 51.7579 51.887ZM50.618 53.5235L50.4735 53.4009C50.1678 53.1415 49.8521 52.9278 49.5266 52.7597C49.2011 52.5915 48.8789 52.4874 48.56 52.4473C48.2411 52.4072 47.9342 52.4422 47.6393 52.5521C47.3444 52.662 47.0743 52.8614 46.8291 53.1504C46.5911 53.431 46.4436 53.7236 46.3868 54.0283C46.3264 54.3372 46.342 54.6457 46.4335 54.9538C46.525 55.2619 46.6802 55.5629 46.8991 55.8566C47.1145 56.1546 47.375 56.4333 47.6808 56.6926L47.8252 56.8152C48.1268 57.071 48.44 57.2791 48.7648 57.4395C49.0904 57.6077 49.4164 57.7115 49.7431 57.7509C50.0662 57.7945 50.3752 57.7614 50.6701 57.6515C50.9657 57.5493 51.2342 57.3559 51.4758 57.0711C51.7175 56.7863 51.8664 56.4877 51.9226 56.1753C51.9794 55.8706 51.96 55.5624 51.8643 55.2507C51.7686 54.939 51.6113 54.6363 51.3924 54.3426C51.1776 54.0523 50.9195 53.7793 50.618 53.5235Z" fill="#976464"/>
<path d="M47.1757 65.0613L46.1811 66.7796L43.5141 65.1218C42.7388 64.6413 42.1137 64.159 41.6388 63.6748C41.164 63.1905 40.8046 62.7096 40.5606 62.2321C40.3214 61.7574 40.1703 61.2892 40.1075 60.8277C40.0419 60.3709 40.0382 59.9277 40.0964 59.4982L40.3894 58.992L41.7441 59.776L41.6181 60.0267C41.7184 60.3577 41.8353 60.6601 41.9687 60.934C42.1041 61.2154 42.2746 61.4854 42.4802 61.744C42.6907 62.0054 42.96 62.2692 43.2882 62.5353C43.6137 62.8062 44.0205 63.0956 44.5086 63.4034L47.1757 65.0613ZM46.9116 65.5176L44.0807 70.4088L36.3659 65.9438L37.3563 64.2326L43.6165 67.8558L45.457 64.6757L46.9116 65.5176ZM41.9854 59.3921L37.1242 67.7914L33.4593 65.6703L34.4538 63.9519L36.7497 65.2807L39.6095 60.3396L37.3136 59.0108L38.3246 57.2639L41.9854 59.3921Z" fill="#976464"/>
<path d="M34.6035 74.7428L38.5892 76.2208C38.8878 76.3315 39.1654 76.3729 39.4217 76.345C39.6781 76.317 39.9066 76.2143 40.1071 76.0368C40.3058 75.8645 40.4662 75.6135 40.5884 75.2839C40.7011 74.9801 40.747 74.6984 40.7261 74.4388C40.7052 74.1792 40.6301 73.9551 40.5009 73.7666C40.3716 73.5781 40.1963 73.4428 39.9749 73.3607L40.6623 71.5069C40.9919 71.6291 41.2815 71.8273 41.5313 72.1015C41.7811 72.3757 41.9706 72.7096 42.1 73.1031C42.2294 73.4967 42.2853 73.9304 42.2677 74.4042C42.2502 74.878 42.144 75.3775 41.9492 75.9028C41.7163 76.531 41.4045 77.048 41.0139 77.4538C40.6213 77.8647 40.1598 78.1299 39.6293 78.2495C39.102 78.3761 38.5191 78.3211 37.8806 78.0843L34.1652 76.7065C33.7842 76.5652 33.4322 76.464 33.1093 76.4028C32.7896 76.3487 32.5 76.3321 32.2403 76.353L32.1168 76.3071L32.8242 74.3993C33.0575 74.3862 33.3382 74.4112 33.6663 74.4743C33.9976 74.5444 34.31 74.6339 34.6035 74.7428ZM37.9096 76.2763L36.753 75.8649L37.2485 74.5287C37.3764 74.1836 37.4556 73.8674 37.4861 73.58C37.5217 73.2944 37.5101 73.0412 37.4515 72.8203C37.3928 72.5994 37.2922 72.4127 37.1496 72.2602C37.0069 72.1078 36.8249 71.9905 36.6035 71.9084C36.3821 71.8263 36.1596 71.8023 35.936 71.8366C35.7176 71.8727 35.5206 71.9696 35.345 72.127C35.1676 72.2897 35.0263 72.5126 34.9213 72.7958C34.78 73.1769 34.7341 73.5377 34.7835 73.8782C34.8362 74.2257 34.9453 74.5239 35.1108 74.7727C35.2814 75.0234 35.4678 75.1921 35.6699 75.2788L34.62 75.5748C34.4318 75.4347 34.2444 75.2451 34.0578 75.0061C33.8711 74.767 33.7119 74.4854 33.5803 74.1612C33.4518 73.8442 33.3802 73.4925 33.3652 73.1062C33.3484 72.7251 33.4202 72.3183 33.5806 71.8857C33.783 71.3399 34.0716 70.8933 34.4464 70.5461C34.8263 70.2008 35.2465 69.9759 35.707 69.8714C36.1727 69.7688 36.6424 69.8053 37.1161 69.981C37.559 70.1452 37.9198 70.3727 38.1985 70.6635C38.4805 70.9614 38.6773 71.3155 38.7887 71.7258C38.8982 72.1413 38.9243 72.6079 38.8671 73.1256C38.815 73.6452 38.6763 74.2088 38.451 74.8164L37.9096 76.2763Z" fill="#976464"/>
<path d="M33.7998 83.9285L39.5903 81.2137L39.2217 83.6242L35.4388 85.1459L35.176 86.8642L33.4312 86.339L33.7998 83.9285ZM33.9329 84.9656L30.4341 82.1221L30.8027 79.7116L35.274 83.6623L33.9329 84.9656ZM38.4646 88.5755L29.6533 87.2281L29.9522 85.2736L38.7635 86.621L38.4646 88.5755ZM37.634 94.0072L32.9194 89.686L33.2893 87.2674L35.1125 87.2795L34.8485 89.0059L38.0038 91.5886L37.634 94.0072ZM29.1689 90.3959L33.3588 88.7198L34.2416 90.4132L28.7966 92.8308L29.1689 90.3959Z" fill="#976464"/>
<path d="M40.9851 101.281L37.0094 104.413L41.6967 106.322L42.0295 108.68L35.6414 105.921L30.1652 110.446L29.8289 108.064L33.877 104.855L29.0989 102.893L28.7615 100.502L35.2776 103.343L40.6511 98.9156L40.9851 101.281Z" fill="#976464"/>
<path d="M34.5297 115.732L41.359 117.068L42.0098 118.944L33.5887 121.866L32.9379 119.99L38.6272 118.016L31.7901 116.683L31.1393 114.807L39.5604 111.885L40.2112 113.761L34.5297 115.732Z" fill="#976464"/>
<path d="M45.3549 125.862L37.5066 130.088L36.5615 128.332L44.4097 124.107L45.3549 125.862ZM46.7414 128.437L45.3632 129.179L41.6685 122.317L43.0466 121.575L46.7414 128.437Z" fill="#976464"/>
<path d="M53.4013 137.055L52.2059 138.091L49.325 134.766L50.5204 133.73L53.4013 137.055ZM50.8279 134.085L44.0914 139.922L42.7913 138.422L49.5278 132.585L50.8279 134.085ZM54.4209 138.232L47.6844 144.069L46.3789 142.562L53.1153 136.725L54.4209 138.232Z" fill="#976464"/>
<path d="M56.6193 142.687L49.9607 150.97L48.4133 149.726L56.1456 140.108L57.5709 141.254L56.6193 142.687ZM59.4785 148.4L59.3701 148.535C58.9641 149.04 58.5274 149.46 58.06 149.796C57.6003 150.132 57.1258 150.367 56.6366 150.502C56.1551 150.636 55.6769 150.657 55.2019 150.564C54.7269 150.471 54.2712 150.249 53.8346 149.898C53.4022 149.551 53.0871 149.167 52.8891 148.747C52.6988 148.326 52.6111 147.879 52.626 147.405C52.6409 146.93 52.7398 146.439 52.9229 145.931C53.1136 145.422 53.3739 144.905 53.7037 144.381L54.1218 143.861C54.5869 143.396 55.0527 143.01 55.5192 142.701C55.99 142.396 56.4571 142.183 56.9205 142.063C57.384 141.942 57.8416 141.929 58.2934 142.025C58.7452 142.12 59.1851 142.34 59.6132 142.684C60.0498 143.035 60.3683 143.432 60.5688 143.875C60.7728 144.314 60.8647 144.782 60.8446 145.281C60.828 145.775 60.702 146.287 60.4666 146.816C60.2346 147.341 59.9052 147.869 59.4785 148.4ZM57.8228 147.291L57.9312 147.156C58.1893 146.835 58.3985 146.513 58.5588 146.191C58.7225 145.865 58.8245 145.545 58.8647 145.232C58.9049 144.919 58.8709 144.624 58.7626 144.347C58.6621 144.069 58.4727 143.818 58.1945 143.594C57.9205 143.374 57.6472 143.232 57.3746 143.168C57.1055 143.099 56.8392 143.093 56.5757 143.149C56.3123 143.205 56.0564 143.313 55.8081 143.473C55.5633 143.628 55.3244 143.82 55.0914 144.049L54.09 145.294C53.8936 145.644 53.7543 145.997 53.6719 146.353C53.5896 146.71 53.5999 147.056 53.7029 147.393C53.8136 147.729 54.0487 148.041 54.4083 148.33C54.6865 148.554 54.9722 148.685 55.2655 148.723C55.5587 148.762 55.8517 148.726 56.1445 148.616C56.445 148.505 56.737 148.335 57.0206 148.105C57.3042 147.875 57.5716 147.603 57.8228 147.291Z" fill="#976464"/>
<path d="M62.3288 150.759L62.418 150.592C62.7205 150.025 63.0833 149.543 63.5066 149.146C63.9324 148.745 64.3961 148.447 64.8975 148.254C65.4064 148.059 65.9391 147.982 66.4957 148.024C67.0598 148.063 67.6277 148.236 68.1995 148.541C68.7761 148.848 69.2355 149.224 69.5776 149.668C69.9271 150.11 70.1624 150.596 70.2835 151.128C70.4071 151.654 70.4208 152.206 70.3244 152.784C70.2307 153.356 70.0326 153.926 69.7301 154.493L69.6409 154.66C69.3385 155.227 68.9756 155.709 68.5524 156.105C68.1291 156.502 67.663 156.798 67.1542 156.993C66.6479 157.184 66.1152 157.261 65.556 157.224C64.9993 157.182 64.4351 157.009 63.8633 156.704C63.2867 156.396 62.8236 156.021 62.4741 155.58C62.1321 155.136 61.8992 154.651 61.7755 154.124C61.6544 153.592 61.6408 153.04 61.7345 152.468C61.8283 151.896 62.0264 151.326 62.3288 150.759ZM64.1697 151.526L64.0805 151.693C63.8918 152.047 63.7498 152.401 63.6545 152.755C63.5591 153.108 63.5256 153.445 63.554 153.766C63.5824 154.086 63.6816 154.378 63.8515 154.643C64.0214 154.908 64.2735 155.13 64.6078 155.308C64.9325 155.481 65.2497 155.563 65.5596 155.554C65.8742 155.548 66.1724 155.467 66.4542 155.313C66.7359 155.158 66.9971 154.943 67.2378 154.666C67.4834 154.393 67.7005 154.079 67.8892 153.725L67.9784 153.558C68.1645 153.209 68.3016 152.859 68.3895 152.508C68.4848 152.154 68.5172 151.813 68.4865 151.486C68.4607 151.161 68.3629 150.866 68.193 150.601C68.0305 150.333 67.7845 150.112 67.455 149.936C67.1255 149.76 66.8021 149.678 66.4849 149.689C66.175 149.698 65.878 149.783 65.5937 149.942C65.3093 150.102 65.0468 150.32 64.8061 150.596C64.568 150.867 64.3559 151.177 64.1697 151.526Z" fill="#976464"/>
<path d="M76.5988 152.635L78.4903 153.238L77.4421 156.199C77.1388 157.059 76.8015 157.773 76.4302 158.34C76.0589 158.908 75.6661 159.362 75.2519 159.702C74.8394 160.038 74.4145 160.286 73.9771 160.446C73.545 160.608 73.1129 160.706 72.6808 160.741L72.1236 160.563L72.5994 159.072L72.8712 159.142C73.173 158.973 73.4434 158.794 73.6824 158.605C73.9283 158.412 74.1555 158.188 74.3641 157.932C74.5744 157.67 74.7743 157.351 74.964 156.973C75.1589 156.597 75.3544 156.138 75.5506 155.595L76.5988 152.635ZM77.1011 152.795L82.4851 154.513L79.7758 163.005L77.8922 162.404L80.0907 155.513L76.5903 154.396L77.1011 152.795ZM72.1727 158.919L81.4181 161.869L80.1311 165.903L78.2396 165.299L79.0459 162.772L73.607 161.037L72.8007 163.564L70.8778 162.95L72.1727 158.919Z" fill="#976464"/>
<path d="M88.4937 162.808L89.0882 158.599C89.1328 158.283 89.1141 158.003 89.0322 157.759C88.9502 157.514 88.8012 157.313 88.585 157.155C88.3743 156.998 88.0949 156.894 87.7468 156.845C87.426 156.8 87.141 156.815 86.8918 156.891C86.6426 156.967 86.4396 157.088 86.283 157.254C86.1264 157.421 86.0315 157.621 85.9985 157.855L84.0408 157.578C84.09 157.23 84.2219 156.905 84.4365 156.602C84.6512 156.3 84.937 156.043 85.294 155.833C85.6509 155.623 86.0627 155.476 86.5294 155.392C86.9961 155.308 87.5068 155.305 88.0614 155.384C88.7249 155.477 89.2965 155.672 89.7761 155.967C90.2613 156.263 90.6188 156.657 90.8487 157.15C91.0848 157.638 91.1552 158.22 91.06 158.894L90.5057 162.818C90.4489 163.22 90.425 163.585 90.434 163.914C90.4493 164.238 90.4948 164.524 90.5705 164.774L90.5521 164.904L88.5373 164.619C88.4748 164.394 88.4394 164.115 88.4311 163.781C88.429 163.442 88.4499 163.118 88.4937 162.808ZM89.2873 159.251L89.1319 160.469L87.7207 160.269C87.3564 160.218 87.0306 160.208 86.7432 160.239C86.4567 160.265 86.2117 160.331 86.0084 160.435C85.805 160.539 85.6441 160.678 85.5255 160.849C85.407 161.021 85.3312 161.224 85.2981 161.458C85.2651 161.692 85.2891 161.914 85.3703 162.125C85.4521 162.331 85.5887 162.503 85.78 162.641C85.9767 162.78 86.2246 162.87 86.5237 162.912C86.9261 162.969 87.2884 162.937 87.6106 162.816C87.9389 162.691 88.207 162.521 88.4148 162.306C88.6234 162.086 88.7485 161.868 88.7901 161.652L89.3031 162.614C89.2063 162.828 89.061 163.052 88.8672 163.285C88.6734 163.518 88.4322 163.734 88.1436 163.932C87.8612 164.125 87.5328 164.27 87.1586 164.367C86.7898 164.464 86.377 164.481 85.9202 164.416C85.3438 164.335 84.846 164.148 84.4269 163.856C84.0086 163.558 83.6993 163.196 83.499 162.768C83.2995 162.335 83.2351 161.868 83.3058 161.368C83.3718 160.9 83.5172 160.499 83.7419 160.165C83.9729 159.826 84.2769 159.558 84.6541 159.362C85.0367 159.166 85.487 159.041 86.0049 158.987C86.5237 158.927 87.1039 158.942 87.7456 159.033L89.2873 159.251Z" fill="#976464"/>
<path d="M97.4503 161.646L93.5661 156.566L95.9999 156.413L98.2913 159.786L100.026 159.677L99.8841 161.494L97.4503 161.646ZM98.4354 161.296L96.4011 165.319L93.9673 165.472L96.8766 160.263L98.4354 161.296ZM100.999 156.1L101.556 164.996L99.583 165.12L99.0256 156.224L100.999 156.1ZM106.483 155.757L103.263 161.282L100.821 161.435L100.445 159.651L102.189 159.542L104.041 155.91L106.483 155.757ZM104.755 164.796L102.226 161.058L103.693 159.836L107.213 164.642L104.755 164.796Z" fill="#976464"/>
<path d="M112.996 150.942L116.895 154.17L117.775 149.186L120.01 148.365L118.656 155.19L124.232 159.592L121.975 160.422L117.986 157.139L117.072 162.224L114.806 163.056L116.213 156.088L110.754 151.766L112.996 150.942Z" fill="#976464"/>
<path d="M128.471 154.228L128.348 147.271L130.045 146.241L134.666 153.864L132.968 154.893L129.847 149.743L129.974 156.708L128.277 157.737L123.656 150.115L125.354 149.086L128.471 154.228Z" fill="#976464"/>
<path d="M136.187 141.45L141.974 148.23L140.458 149.524L134.671 142.744L136.187 141.45ZM138.411 139.551L139.427 140.742L133.5 145.802L132.484 144.611L138.411 139.551Z" fill="#976464"/>
<path d="M145.404 131.214L146.67 132.162L144.032 135.683L142.766 134.734L145.404 131.214ZM143.048 134.359L150.181 139.703L148.991 141.292L141.857 135.947L143.048 134.359ZM146.338 129.968L153.471 135.313L152.276 136.908L145.142 131.563L146.338 129.968Z" fill="#976464"/>
<path d="M150.247 126.801L159.755 131.548L158.868 133.325L147.827 127.811L148.645 126.175L150.247 126.801ZM155.223 122.793L155.378 122.871C155.957 123.16 156.461 123.498 156.889 123.883C157.314 124.261 157.644 124.675 157.88 125.124C158.114 125.566 158.236 126.029 158.246 126.513C158.256 126.997 158.136 127.489 157.885 127.99C157.638 128.487 157.33 128.876 156.961 129.159C156.591 129.434 156.172 129.615 155.705 129.701C155.239 129.787 154.738 129.795 154.202 129.724C153.664 129.645 153.104 129.501 152.522 129.29L151.925 128.992C151.372 128.636 150.895 128.263 150.495 127.873C150.097 127.477 149.79 127.066 149.573 126.639C149.357 126.212 149.247 125.767 149.245 125.305C149.242 124.844 149.363 124.367 149.609 123.876C149.859 123.374 150.179 122.979 150.57 122.689C150.955 122.396 151.393 122.207 151.885 122.121C152.371 122.032 152.898 122.047 153.465 122.164C154.028 122.279 154.614 122.489 155.223 122.793ZM154.491 124.647L154.336 124.57C153.967 124.386 153.609 124.249 153.26 124.161C152.906 124.07 152.572 124.039 152.258 124.066C151.943 124.093 151.662 124.189 151.414 124.354C151.164 124.511 150.959 124.749 150.799 125.069C150.642 125.383 150.561 125.68 150.557 125.96C150.547 126.238 150.597 126.5 150.708 126.745C150.819 126.991 150.978 127.218 151.187 127.426C151.391 127.633 151.63 127.825 151.902 128.004L153.332 128.718C153.715 128.836 154.09 128.897 154.456 128.902C154.822 128.907 155.158 128.823 155.465 128.651C155.77 128.472 156.025 128.176 156.231 127.763C156.391 127.443 156.458 127.136 156.433 126.842C156.409 126.547 156.311 126.268 156.142 126.005C155.97 125.735 155.741 125.486 155.456 125.258C155.171 125.03 154.849 124.826 154.491 124.647Z" fill="#976464"/>
</svg>
